:FULLY-SPECIFIED
:FORCE-ALL-JOINTS-BE-3DOF
:DEGREES
781
root 1.58928 16.3899 18.644 -9.74978 74.2743 344.247
lfemur -35.7024 10.7483 -13.0221
ltibia 49.8312 0 0
lfoot -21.6234 19.8855 0
ltoes 14.1916 0 0
rfemur -15.4955 -21.574 21.1565
rtibia 51.517 0 0
rfoot -17.5893 -30.9999 0
rtoes -26.0456 0 0
lowerback 1.13483 4.67013 -0.654949
upperback -0.811966 6.21225 -3.69498
thorax -1.12614 3.11541 -3.54514
lowerneck -5.38712 -6.48564 -0.537957
upperneck -2.20876 -8.55449 4.86403
head 0.457874 -4.20854 1.40632
lclavicle 1.74931e-14 -1.59028e-14 0
lhumerus -55.8578 -11.6232 94.9045
lradius 70.5819 0 0
lwrist 13.5493 0 0
lhand -21.8809 -4.63989 0
lfingers 7.12502 0 0
lthumb 4.5238 25.2918 0
rclavicle 1.74931e-14 -1.59028e-14 0
rhumerus -31.2742 48.0332 -113.074
rradius 80.002 0 0
rwrist 5.63508 0 0
rhand -24.1562 -20.2715 0
rfingers 7.12502 0 0
rthumb 2.32647 -770.239 0
782
root 1.57575 16.4154 18.7302 -8.27745 71.3442 345.759
lfemur -35.2822 8.3544 -12.1988
ltibia 49.7836 0 0
lfoot -21.6413 18.3721 0
ltoes 13.493 0 0
rfemur -15.4113 -20.6498 20.9852
rtibia 50.9405 0 0
rfoot -17.6983 -29.55 0
rtoes -26.2531 0 0
lowerback 1.03404 4.65209 -0.351458
upperback -0.771381 6.19229 -3.56478
thorax -1.01192 3.1039 -3.56682
lowerneck -5.45535 -6.32854 -0.398254
upperneck -1.92572 -8.36716 4.63596
head 0.536813 -4.11548 1.31124
lclavicle 2.14688e-14 -1.16621e-14 0
lhumerus -55.9773 -11.5563 94.9225
lradius 70.579 0 0
lwrist 14.03 0 0
lhand -22.1171 -4.25812 0
lfingers 7.12502 0 0
lthumb 4.29573 25.6777 0
rclavicle 2.14688e-14 -1.16621e-14 0
rhumerus -31.8668 47.9144 -113.502
rradius 79.765 0 0
rwrist 5.42512 0 0
rhand -24.1223 -20.4554 0
rfingers 7.12502 0 0
rthumb 2.35926 -770.423 0
783
root 1.56222 16.4408 18.8164 -6.80511 68.4142 347.27
lfemur -34.8621 5.9605 -11.3755
ltibia 49.7359 0 0
lfoot -21.6593 16.8586 0
ltoes 12.7943 0 0
rfemur -15.3271 -19.7255 20.8139
rtibia 50.3639 0 0
rfoot -17.8073 -28.1001 0
rtoes -26.4605 0 0
lowerback 0.933259 4.63406 -0.047966
upperback -0.730795 6.17234 -3.43459
thorax -0.897698 3.0924 -3.58851
lowerneck -5.52358 -6.17145 -0.258551
upperneck -1.64267 -8.17983 4.40789
head 0.615751 -4.02242 1.21616
lclavicle 2.54445e-14 -7.42131e-15 0
lhumerus -56.0968 -11.4894 94.9405
lradius 70.5761 0 0
lwrist 14.5107 0 0
lhand -22.3532 -3.87635 0
lfingers 7.12502 0 0
lthumb 4.06765 26.0636 0
rclavicle 2.54445e-14 -7.42131e-15 0
rhumerus -32.4594 47.7955 -113.929
rradius 79.5281 0 0
rwrist 5.21517 0 0
rhand -24.0883 -20.6393 0
rfingers 7.12502 0 0
rthumb 2.39205 -770.606 0
784
root 1.54868 16.4663 18.9026 -5.33278 65.4841 348.782
lfemur -34.4419 3.56661 -10.5522
ltibia 49.6882 0 0
lfoot -21.6772 15.3452 0
ltoes 12.0957 0 0
rfemur -15.2429 -18.8013 20.6425
rtibia 49.7874 0 0
rfoot -17.9164 -26.6502 0
rtoes -26.668 0 0
lowerback 0.832473 4.61602 0.255525
upperback -0.69021 6.15238 -3.30439
thorax -0.783476 3.08089 -3.61019
lowerneck -5.59181 -6.01435 -0.118848
upperneck -1.35963 -7.99249 4.17983
head 0.69469 -3.92936 1.12108
lclavicle 2.94202e-14 -3.18057e-15 0
lhumerus -56.2163 -11.4226 94.9585
lradius 70.5733 0 0
lwrist 14.9915 0 0
lhand -22.5894 -3.49458 0
lfingers 7.12502 0 0
lthumb 3.83958 26.4494 0
rclavicle 2.94202e-14 -3.18057e-15 0
rhumerus -33.0521 47.6767 -114.356
rradius 79.2911 0 0
rwrist 5.00521 0 0
rhand -24.0543 -20.8233 0
rfingers 7.12502 0 0
rthumb 2.42484 -770.79 0
